<svg xmlns="http://www.w3.org/2000/svg" viewBox="0 0 57.69 57.69"><path fill="#aa69ff" d="M28.85.5a28.35 28.35 0 1 0 28.34 28.35A28.35 28.35 0 0 0 28.85.5Z"/><path fill="#fff" d="m24.77 33.77-7.48-4.35v-.89a3.82 3.82 0 0 1 1.91-3.31l7.09-4.1a3.78 3.78 0 0 1 3-.36v8.9l-.7-.4a1.14 1.14 0 0 0-1.13 0l-2.09 1.21a1.12 1.12 0 0 0-.57 1Zm-7.48 2.94A3.81 3.81 0 0 0 19.21 40l7.08 4.09a3.85 3.85 0 0 0 3.83 0l4.34-2.51-17.17-10ZM39.11 15a1.74 1.74 0 0 0-.88-1.52L36 12.19a1.78 1.78 0 0 0-1.76 0l-2.19 1.27a1.75 1.75 0 0 0-.84 1.54v18.85a1.13 1.13 0 0 1-.56 1l-2 1.18 7.75 4.5.8-.53a3.82 3.82 0 0 0 1.92-3.32Z"/></svg>
